<svg xmlns="http://www.w3.org/2000/svg" fill-rule="evenodd" clip-rule="evenodd" image-rendering="optimizeQuality" shape-rendering="geometricPrecision" text-rendering="geometricPrecision" viewBox="0 0 1707 1707" width="256" height="256"><path fill="#ededed" d="M1677 1558l-1647 0c-16,0 -30,-14 -30,-30l0 -1013c0,-17 14,-30 30,-30l1647 0c16,0 30,13 30,30l0 1013c0,16 -14,30 -30,30z" ></path><path fill="#ff3e1a" d="M0 515l0 -224c0,-17 14,-30 30,-30 674,0 972,0 1647,0 16,0 30,13 30,30l0 224 0 0 -1707 0z" ></path><path fill="#ffa721" d="M1361 433l-157 0c-16 0-30-14-30-30l0-224c0-17 14-30 30-30l157 0c17 0 30 13 30 30l0 224c0 16-13 30-30 30zm-429 0l-157 0c-17 0-30-14-30-30l0-224c0-17 13-30 30-30l157 0c16 0 30 13 30 30l0 224c0 16-14 30-30 30zm-430 0l-157 0c-16 0-30-14-30-30l0-224c0-17 14-30 30-30l157 0c17 0 30 13 30 30l0 224c0 16-13 30-30 30zM532 839l-362 0c-17 0-30-13-30-30l0-169c0-17 13-30 30-30l362 0c16 0 30 13 30 30l0 169c0 17-14 30-30 30zm0 297l-362 0c-17 0-30-14-30-30l0-169c0-17 13-30 30-30l362 0c16 0 30 13 30 30l0 169c0 16-14 30-30 30zm0 297l-362 0c-17 0-30-14-30-30l0-170c0-16 13-30 30-30l362 0c16 0 30 14 30 30l0 170c0 16-14 30-30 30zm502-594l-362 0c-16 0-30-13-30-30l0-169c0-17 14-30 30-30l362 0c17 0 30 13 30 30l0 169c0 17-13 30-30 30zm0 297l-362 0c-16 0-30-14-30-30l0-169c0-17 14-30 30-30l362 0c17 0 30 13 30 30l0 169c0 16-13 30-30 30zm0 297l-362 0c-16 0-30-14-30-30l0-170c0-16 14-30 30-30l362 0c17 0 30 14 30 30l0 170c0 16-13 30-30 30zm503-594l-362 0c-17 0-30-13-30-30l0-169c0-17 13-30 30-30l362 0c16 0 30 13 30 30l0 169c0 17-14 30-30 30zm0 297l-362 0c-17 0-30-14-30-30l0-169c0-17 13-30 30-30l362 0c16 0 30 13 30 30l0 169c0 16-14 30-30 30zm0 297l-362 0c-17 0-30-14-30-30l0-170c0-16 13-30 30-30l362 0c16 0 30 14 30 30l0 170c0 16-14 30-30 30z"></path></svg>